<?xml version="1.0" encoding="UTF-8" standalone="no"?><!-- Generator: Gravit.io --><svg xmlns="http://www.w3.org/2000/svg" xmlns:xlink="http://www.w3.org/1999/xlink" style="isolation:isolate" viewBox="670.5 702.537 283.797 250.098" width="283.797pt" height="250.098pt"><path d=" M 676.76 714.3 Q 680.093 710.966 689.76 710.3 C 699.427 709.633 711.739 712.764 722.76 717.3 C 733.781 721.836 742.385 727.925 749.76 734.3 Q 759.012 742.297 767.76 752.3 Q 775.51 763.376 776.76 774.15 C 778.01 784.925 774.447 791.237 775.76 797.3 C 777.072 803.362 779.197 804.956 780.76 807.3 Q 782.322 809.643 809.76 837.3 L 831.76 815.3 Q 836.354 811.362 837.76 807.3 Q 839.166 803.237 839.76 791.3 Q 840.541 784.018 842.76 778.3 Q 844.979 772.581 852.76 761.3 L 868.76 745.3 L 905.76 715.3 L 916.76 706.3 Q 920.916 703.002 921.76 704.51 Q 922.604 706.018 919.76 709.3 L 903.76 727.3 L 883.76 748.3 L 870.76 763.3 Q 869.412 765.468 870.76 766.3 Q 872.108 767.132 873.76 766.3 L 915.76 727.3 L 926.76 717.3 Q 930.088 714.175 931.76 715.3 Q 933.432 716.425 930.76 720.3 L 904.76 748.3 L 881.76 773.3 Q 879.916 774.628 881.76 776.3 Q 883.604 777.972 884.76 777.3 L 935.76 729.3 Q 940.76 723.237 942.76 725.3 Q 944.76 727.362 939.76 732.3 L 915.76 758.3 L 891.76 784.3 Q 890.322 786.237 891.76 787.3 Q 893.197 788.362 894.76 787.3 L 915.76 768.3 L 933.76 751.3 L 945.76 740.3 Q 952.385 734.612 952.76 736.3 Q 953.135 737.987 949.76 743.3 L 913.76 787.3 L 900.76 801.3 Q 894.197 808.55 887.76 811.3 Q 881.322 814.05 869.76 817.3 Q 859.697 817.987 855.76 819.3 Q 851.822 820.612 847.76 822.3 L 837.76 830.3 L 820.76 847.3 L 840.76 864.3 L 873.76 888.3 L 894.76 904.3 Q 915.385 923.675 900.76 940.3 Q 886.135 956.925 865.76 932.3 L 838.76 896.3 Q 825.76 878.3 822.76 874.3 Q 819.76 870.3 809.76 859.3 L 788.76 883.3 L 770.76 908.51 L 752.76 933.3 Q 745.138 942.027 740.76 945.3 C 728.596 954.393 719.479 950.432 716.76 949.3 C 714.041 948.167 705.713 942.878 706.76 929.3 Q 707.469 920.096 720.76 908.51 L 752.76 885.3 Q 773.885 869.3 779.76 864.3 Q 785.635 859.3 798.76 848.3 L 769.76 819.3 Q 764.885 814.8 761.76 814.3 C 756.245 813.417 751.542 815.157 747.76 815.3 Q 729.322 816.175 719.76 809.3 C 712.219 803.878 706.025 799.099 699.76 792.3 C 693.495 785.5 689.928 780.498 685.76 773.3 C 676.182 756.761 665.666 731.393 676.76 714.3 Z " fill="rgb(238,160,92)" vector-effect="non-scaling-stroke" stroke-width="1" stroke="rgb(238,160,92)" stroke-linejoin="miter" stroke-linecap="square" stroke-miterlimit="3"/></svg>