<?xml version="1.0" encoding="UTF-8" standalone="no"?><!-- Generator: Gravit.io --><svg xmlns="http://www.w3.org/2000/svg" xmlns:xlink="http://www.w3.org/1999/xlink" style="isolation:isolate" viewBox="974.378 702.537 283.797 250.098" width="283.797pt" height="250.098pt"><path d=" M 980.637 714.3 Q 983.971 710.966 993.637 710.3 C 1003.304 709.633 1015.616 712.764 1026.637 717.3 C 1037.659 721.836 1046.262 727.925 1053.637 734.3 Q 1062.89 742.297 1071.637 752.3 Q 1079.387 763.376 1080.637 774.15 C 1081.887 784.925 1078.325 791.237 1079.637 797.3 C 1080.95 803.362 1083.075 804.956 1084.637 807.3 Q 1086.2 809.643 1113.637 837.3 L 1135.637 815.3 Q 1140.231 811.362 1141.637 807.3 Q 1143.044 803.237 1143.637 791.3 Q 1144.419 784.018 1146.637 778.3 Q 1148.856 772.581 1156.637 761.3 L 1172.637 745.3 L 1209.637 715.3 L 1220.637 706.3 Q 1224.794 703.002 1225.637 704.51 Q 1226.481 706.018 1223.637 709.3 L 1207.637 727.3 L 1187.637 748.3 L 1174.637 763.3 Q 1173.29 765.468 1174.637 766.3 Q 1175.985 767.132 1177.637 766.3 L 1219.637 727.3 L 1230.637 717.3 Q 1233.966 714.175 1235.637 715.3 Q 1237.309 716.425 1234.637 720.3 L 1208.637 748.3 L 1185.637 773.3 Q 1183.794 774.628 1185.637 776.3 Q 1187.481 777.972 1188.637 777.3 L 1239.637 729.3 Q 1244.637 723.237 1246.637 725.3 Q 1248.637 727.362 1243.637 732.3 L 1219.637 758.3 L 1195.637 784.3 Q 1194.2 786.237 1195.637 787.3 Q 1197.075 788.362 1198.637 787.3 L 1219.637 768.3 L 1237.637 751.3 L 1249.637 740.3 Q 1256.262 734.612 1256.637 736.3 Q 1257.012 737.987 1253.637 743.3 L 1217.637 787.3 L 1204.637 801.3 Q 1198.075 808.55 1191.637 811.3 Q 1185.2 814.05 1173.637 817.3 Q 1163.575 817.987 1159.637 819.3 Q 1155.7 820.612 1151.637 822.3 L 1141.637 830.3 L 1124.637 847.3 L 1144.637 864.3 L 1177.637 888.3 L 1198.637 904.3 Q 1219.262 923.675 1204.637 940.3 Q 1190.012 956.925 1169.637 932.3 L 1142.637 896.3 Q 1129.637 878.3 1126.637 874.3 Q 1123.637 870.3 1113.637 859.3 L 1092.637 883.3 L 1074.637 908.51 L 1056.637 933.3 Q 1049.016 942.027 1044.637 945.3 C 1032.473 954.393 1023.356 950.432 1020.637 949.3 C 1017.919 948.167 1009.591 942.878 1010.637 929.3 Q 1011.347 920.096 1024.637 908.51 L 1056.637 885.3 Q 1077.762 869.3 1083.637 864.3 Q 1089.512 859.3 1102.637 848.3 L 1073.637 819.3 Q 1068.762 814.8 1065.637 814.3 C 1060.122 813.417 1055.419 815.157 1051.637 815.3 Q 1033.2 816.175 1023.637 809.3 C 1016.096 803.878 1009.902 799.099 1003.637 792.3 C 997.373 785.5 993.806 780.498 989.637 773.3 C 980.059 756.761 969.544 731.393 980.637 714.3 Z " fill="rgb(212,77,92)" vector-effect="non-scaling-stroke" stroke-width="1" stroke="rgb(212,77,92)" stroke-linejoin="miter" stroke-linecap="square" stroke-miterlimit="3"/></svg>