<?xml version="1.0" encoding="UTF-8" standalone="no"?><!-- Generator: Gravit.io --><svg xmlns="http://www.w3.org/2000/svg" xmlns:xlink="http://www.w3.org/1999/xlink" style="isolation:isolate" viewBox="605.5 314.053 283.797 250.098" width="283.797pt" height="250.098pt"><path d=" M 611.76 325.816 Q 615.093 322.482 624.76 321.816 C 634.427 321.149 646.739 324.28 657.76 328.816 C 668.781 333.352 677.385 339.441 684.76 345.816 Q 694.012 353.813 702.76 363.816 Q 710.51 374.892 711.76 385.666 C 713.01 396.441 709.447 402.753 710.76 408.816 C 712.072 414.878 714.197 416.472 715.76 418.816 Q 717.322 421.159 744.76 448.816 L 766.76 426.816 Q 771.354 422.878 772.76 418.816 Q 774.166 414.753 774.76 402.816 Q 775.541 395.534 777.76 389.816 Q 779.979 384.097 787.76 372.816 L 803.76 356.816 L 840.76 326.816 L 851.76 317.816 Q 855.916 314.518 856.76 316.026 Q 857.604 317.534 854.76 320.816 L 838.76 338.816 L 818.76 359.816 L 805.76 374.816 Q 804.412 376.984 805.76 377.816 Q 807.108 378.648 808.76 377.816 L 850.76 338.816 L 861.76 328.816 Q 865.088 325.691 866.76 326.816 Q 868.432 327.941 865.76 331.816 L 839.76 359.816 L 816.76 384.816 Q 814.916 386.144 816.76 387.816 Q 818.604 389.487 819.76 388.816 L 870.76 340.816 Q 875.76 334.753 877.76 336.816 Q 879.76 338.878 874.76 343.816 L 850.76 369.816 L 826.76 395.816 Q 825.322 397.753 826.76 398.816 Q 828.197 399.878 829.76 398.816 L 850.76 379.816 L 868.76 362.816 L 880.76 351.816 Q 887.385 346.128 887.76 347.816 Q 888.135 349.503 884.76 354.816 L 848.76 398.816 L 835.76 412.816 Q 829.197 420.066 822.76 422.816 Q 816.322 425.566 804.76 428.816 Q 794.697 429.503 790.76 430.816 Q 786.822 432.128 782.76 433.816 L 772.76 441.816 L 755.76 458.816 L 775.76 475.816 L 808.76 499.816 L 829.76 515.816 Q 850.385 535.191 835.76 551.816 Q 821.135 568.441 800.76 543.816 L 773.76 507.816 Q 760.76 489.816 757.76 485.816 Q 754.76 481.816 744.76 470.816 L 723.76 494.816 L 705.76 520.026 L 687.76 544.816 Q 680.138 553.542 675.76 556.816 C 663.596 565.909 654.479 561.948 651.76 560.816 C 649.041 559.683 640.713 554.394 641.76 540.816 Q 642.469 531.612 655.76 520.026 L 687.76 496.816 Q 708.885 480.816 714.76 475.816 Q 720.635 470.816 733.76 459.816 L 704.76 430.816 Q 699.885 426.316 696.76 425.816 C 691.245 424.933 686.542 426.673 682.76 426.816 Q 664.322 427.691 654.76 420.816 C 647.219 415.394 641.025 410.615 634.76 403.816 C 628.495 397.016 624.928 392.013 620.76 384.816 C 611.182 368.277 600.666 342.909 611.76 325.816 Z " fill="rgb(0,0,0)" vector-effect="non-scaling-stroke" stroke-width="1" stroke="rgb(0,0,0)" stroke-linejoin="miter" stroke-linecap="square" stroke-miterlimit="3"/></svg>