<?xml version="1.0" encoding="UTF-8" standalone="no"?><!-- Generator: Gravit.io --><svg xmlns="http://www.w3.org/2000/svg" xmlns:xlink="http://www.w3.org/1999/xlink" style="isolation:isolate" viewBox="26.5 659.351 65.302 322.181" width="65.302pt" height="322.181pt"><path d=" M 66.891 849.648 L 69.012 881.468 L 74.111 912.023 L 78.912 942.279 Q 79.693 953.84 78.912 959.25 C 76.741 974.281 67.493 977.927 64.77 979.049 C 62.046 980.17 52.417 982.319 43.556 971.978 Q 37.55 964.968 38.756 947.378 L 44.971 908.338 Q 48.594 882.087 49.213 874.397 Q 49.832 866.707 51.335 849.648 L 51.335 834.092 L 51.335 802.979 Q 51.799 796.947 49.92 793.08 Q 48.042 789.213 40.021 780.352 Q 35.425 774.651 32.95 769.038 Q 30.475 763.425 28 749.946 L 28 727.319 L 32.95 679.943 L 34.364 665.801 Q 34.971 660.53 36.634 661 Q 38.297 661.47 38.607 665.801 L 40.021 689.842 L 40.728 718.834 L 42.142 738.633 Q 42.722 741.118 44.263 740.754 Q 45.805 740.389 46.385 738.633 L 48.506 681.357 L 49.213 666.508 Q 49.357 661.945 51.335 661.558 Q 53.312 661.171 54.163 665.801 L 55.577 703.984 L 56.991 737.925 Q 56.627 740.168 59.113 740.047 Q 61.599 739.925 61.941 738.633 L 64.062 668.629 Q 63.311 660.807 66.184 660.851 Q 69.056 660.895 69.012 667.922 L 70.426 703.277 L 71.841 738.633 Q 72.194 741.019 73.962 740.754 Q 75.73 740.489 76.083 738.633 L 77.497 710.348 L 78.205 685.6 L 78.912 669.336 Q 79.575 660.63 81.033 661.558 Q 82.491 662.486 83.861 668.629 L 89.518 725.198 L 90.225 744.289 Q 90.712 754.056 88.104 760.553 Q 85.497 767.049 79.619 777.523 Q 72.99 785.125 71.134 788.837 Q 69.277 792.549 67.598 796.615 L 66.184 809.343 L 66.184 833.385 L 66.891 849.648 Z " fill="rgb(0,0,0)" vector-effect="non-scaling-stroke" stroke-width="1" stroke="rgb(0,0,0)" stroke-linejoin="miter" stroke-linecap="square" stroke-miterlimit="3"/></svg>