<?xml version="1.0" encoding="UTF-8" standalone="no"?><!-- Generator: Gravit.io --><svg xmlns="http://www.w3.org/2000/svg" xmlns:xlink="http://www.w3.org/1999/xlink" style="isolation:isolate" viewBox="256.552 660.882 62.302 319.181" width="62.302pt" height="319.181pt"><path d=" M 295.443 849.68 L 297.564 881.5 L 302.663 912.054 L 307.464 942.311 Q 308.245 953.871 307.464 959.281 C 305.293 974.313 296.045 977.959 293.322 979.08 C 290.598 980.202 280.969 982.351 272.108 972.009 Q 266.103 965 267.308 947.409 L 273.523 908.37 Q 277.147 882.118 277.765 874.428 Q 278.384 866.739 279.887 849.68 L 279.887 834.123 L 279.887 803.011 Q 280.351 796.978 278.472 793.111 Q 276.594 789.244 268.573 780.383 Q 263.977 774.682 261.502 769.07 Q 259.027 763.457 256.552 749.978 L 256.552 727.35 L 261.502 679.974 L 262.916 665.832 Q 263.523 660.561 265.186 661.031 Q 266.849 661.501 267.159 665.832 L 268.573 689.874 L 269.28 718.865 L 270.694 738.664 Q 271.274 741.15 272.816 740.785 Q 274.357 740.421 274.937 738.664 L 277.058 681.388 L 277.765 666.539 Q 277.909 661.976 279.887 661.589 Q 281.864 661.203 282.715 665.832 L 284.129 704.016 L 285.544 737.957 Q 285.179 740.2 287.665 740.078 Q 290.151 739.957 290.493 738.664 L 292.615 668.66 Q 291.863 660.838 294.736 660.882 Q 297.609 660.926 297.564 667.953 L 298.979 703.309 L 300.393 738.664 Q 300.746 741.05 302.514 740.785 Q 304.282 740.52 304.635 738.664 L 306.05 710.38 L 306.757 685.631 L 307.464 669.368 Q 308.127 660.661 309.585 661.589 Q 311.044 662.517 312.414 668.66 L 318.07 725.229 L 318.778 744.321 Q 319.264 754.088 316.656 760.584 Q 314.049 767.081 308.171 777.555 Q 301.542 785.156 299.686 788.869 Q 297.829 792.581 296.15 796.647 L 294.736 809.375 L 294.736 833.416 L 295.443 849.68 Z " fill="rgb(238,160,92)"/></svg>