<?xml version="1.0" encoding="UTF-8" standalone="no"?><!-- Generator: Gravit.io --><svg xmlns="http://www.w3.org/2000/svg" xmlns:xlink="http://www.w3.org/1999/xlink" style="isolation:isolate" viewBox="105 660.882 62.302 319.181" width="62.302pt" height="319.181pt"><path d=" M 143.891 849.68 L 146.012 881.5 L 151.111 912.054 L 155.912 942.311 Q 156.693 953.871 155.912 959.281 C 153.741 974.313 144.493 977.959 141.77 979.08 C 139.046 980.202 129.417 982.351 120.556 972.009 Q 114.55 965 115.756 947.409 L 121.971 908.37 Q 125.594 882.118 126.213 874.428 Q 126.832 866.739 128.335 849.68 L 128.335 834.123 L 128.335 803.011 Q 128.799 796.978 126.92 793.111 Q 125.042 789.244 117.021 780.383 Q 112.425 774.682 109.95 769.07 Q 107.475 763.457 105 749.978 L 105 727.35 L 109.95 679.974 L 111.364 665.832 Q 111.971 660.561 113.634 661.031 Q 115.297 661.501 115.607 665.832 L 117.021 689.874 L 117.728 718.865 L 119.142 738.664 Q 119.722 741.15 121.263 740.785 Q 122.805 740.421 123.385 738.664 L 125.506 681.388 L 126.213 666.539 Q 126.357 661.976 128.335 661.589 Q 130.312 661.203 131.163 665.832 L 132.577 704.016 L 133.991 737.957 Q 133.627 740.2 136.113 740.078 Q 138.599 739.957 138.941 738.664 L 141.062 668.66 Q 140.311 660.838 143.184 660.882 Q 146.056 660.926 146.012 667.953 L 147.426 703.309 L 148.841 738.664 Q 149.194 741.05 150.962 740.785 Q 152.73 740.52 153.083 738.664 L 154.497 710.38 L 155.205 685.631 L 155.912 669.368 Q 156.575 660.661 158.033 661.589 Q 159.491 662.517 160.861 668.66 L 166.518 725.229 L 167.225 744.321 Q 167.712 754.088 165.104 760.584 Q 162.497 767.081 156.619 777.555 Q 149.99 785.156 148.134 788.869 Q 146.277 792.581 144.598 796.647 L 143.184 809.375 L 143.184 833.416 L 143.891 849.68 Z " fill="rgb(212,77,92)"/></svg>