<?xml version="1.0" encoding="UTF-8" standalone="no"?><!-- Generator: Gravit.io --><svg xmlns="http://www.w3.org/2000/svg" xmlns:xlink="http://www.w3.org/1999/xlink" style="isolation:isolate" viewBox="254.462 727.637 321.727 184.453" width="321.727pt" height="184.453pt"><path d=" M 446.462 751.646 Q 464.592 749.924 469.596 749.189 Q 494.743 742.736 516.655 738.189 Q 543.462 729.971 561.462 740.189 Q 579.462 750.408 575.462 759.189 L 260.085 759.189 L 254.462 759.189 Q 259.775 742.658 293.462 731.189 C 313.465 728.064 312.789 728.606 322.145 728.189 C 331.502 727.773 339.84 727.189 346.462 728.189 C 355.59 728.314 367.523 732.862 373.462 738.189 C 379.401 743.516 380.818 744.886 385.462 748.189 Q 389.738 751.401 396.462 751.646 L 433.785 751.702 L 446.462 751.646 L 446.462 751.646 L 446.462 751.646 Z  M 446.462 888.081 Q 464.592 889.803 469.596 890.538 Q 494.743 892.991 516.655 897.538 Q 546.462 903.205 561.462 899.538 Q 576.462 895.871 575.462 880.538 L 367.448 880.538 L 254.462 880.538 Q 259.775 897.069 293.462 908.538 C 313.465 911.663 312.789 911.121 322.145 911.538 C 331.502 911.954 339.84 912.538 346.462 911.538 C 355.59 911.413 367.523 906.865 373.462 901.538 C 379.401 896.211 380.818 894.841 385.462 891.538 Q 389.738 888.326 396.462 888.081 L 433.785 888.025 L 446.462 888.081 L 446.462 888.081 L 446.462 888.081 Z  M 446.462 872.994 Q 464.592 871.272 469.596 870.538 Q 494.743 868.085 516.655 863.538 Q 546.462 857.871 561.462 861.538 Q 576.462 865.205 575.462 880.538 L 260.085 880.538 L 254.462 880.538 Q 259.775 864.007 293.462 852.538 C 313.465 849.413 312.789 849.955 322.145 849.538 C 331.502 849.121 339.84 848.538 346.462 849.538 C 355.59 849.663 367.523 854.211 373.462 859.538 C 379.401 864.865 380.818 866.234 385.462 869.538 Q 389.738 872.75 396.462 872.994 L 433.785 873.051 L 446.462 872.994 L 446.462 872.994 Z  M 445.142 795.559 L 476.962 793.437 L 507.516 788.339 L 537.773 783.538 Q 549.333 782.756 554.743 783.538 C 569.775 785.709 573.421 794.956 574.542 797.68 C 575.664 800.403 577.813 810.032 567.471 818.893 Q 560.462 824.899 542.872 823.694 L 503.832 817.479 Q 477.58 813.855 469.891 813.236 Q 462.201 812.618 445.142 811.115 L 429.586 811.115 L 398.473 811.115 Q 392.44 810.651 388.573 812.529 Q 384.706 814.407 375.845 822.429 Q 370.144 827.025 364.532 829.5 Q 358.919 831.975 345.44 834.449 L 322.812 834.449 L 275.436 829.5 L 261.294 828.086 Q 256.023 827.478 256.493 825.815 Q 256.963 824.152 261.294 823.843 L 285.336 822.429 L 314.327 821.722 L 334.126 820.307 Q 336.612 819.727 336.247 818.186 Q 335.883 816.645 334.126 816.065 L 276.85 813.943 L 262.001 813.236 Q 257.438 813.093 257.051 811.115 Q 256.665 809.137 261.294 808.287 L 299.478 806.872 L 333.419 805.458 Q 335.662 805.823 335.54 803.337 Q 335.419 800.851 334.126 800.508 L 264.123 798.387 Q 256.3 799.138 256.344 796.266 Q 256.389 793.393 263.415 793.437 L 298.771 792.023 L 334.126 790.609 Q 336.513 790.255 336.247 788.488 Q 335.982 786.72 334.126 786.366 L 305.842 784.952 L 281.093 784.245 L 264.83 783.538 Q 256.123 782.875 257.051 781.416 Q 257.98 779.958 264.123 778.588 L 320.691 772.931 L 339.783 772.224 Q 349.55 771.738 356.046 774.345 Q 362.543 776.953 373.017 782.831 Q 380.618 789.46 384.331 791.316 Q 388.043 793.172 392.109 794.852 L 404.837 796.266 L 428.878 796.266 L 445.142 795.559 Z " fill-rule="evenodd" fill="rgb(238,160,92)"/></svg>