<?xml version="1.0" encoding="UTF-8" standalone="no"?><!-- Generator: Gravit.io --><svg xmlns="http://www.w3.org/2000/svg" xmlns:xlink="http://www.w3.org/1999/xlink" style="isolation:isolate" viewBox="179 659 63.104 321.062" width="63.104pt" height="321.062pt"><path d=" M 203.009 851 Q 201.287 869.129 200.552 874.134 Q 198.099 899.281 193.552 921.193 Q 187.885 951 191.552 966 Q 195.219 981 210.552 980 L 210.552 771.986 L 210.552 659 Q 194.021 664.312 182.552 698 C 179.427 718.002 179.969 717.327 179.552 726.683 C 179.136 736.04 178.552 744.377 179.552 751 C 179.677 760.127 184.225 772.061 189.552 778 C 194.879 783.939 196.249 785.356 199.552 790 Q 202.764 794.276 203.009 801 L 203.065 838.323 L 203.009 851 Z  M 218.096 851 Q 219.818 869.129 220.552 874.134 Q 223.005 899.281 227.552 921.193 Q 233.219 951 229.552 966 Q 225.885 981 210.552 980 L 210.552 664.622 L 210.552 659 Q 227.083 664.312 238.552 698 C 241.677 718.002 241.135 717.327 241.552 726.683 C 241.969 736.04 242.552 744.377 241.552 751 C 241.427 760.127 236.879 772.061 231.552 778 C 226.225 783.939 224.856 785.356 221.552 790 Q 218.34 794.276 218.096 801 L 218.039 838.323 L 218.096 851 Z " fill-rule="evenodd" fill="rgb(238,160,92)"/></svg>