<?xml version="1.0" encoding="UTF-8" standalone="no"?><!-- Generator: Gravit.io --><svg xmlns="http://www.w3.org/2000/svg" xmlns:xlink="http://www.w3.org/1999/xlink" style="isolation:isolate" viewBox="25.948 657.5 66.104 324.063" width="66.104pt" height="324.063pt"><path d=" M 51.457 851 Q 49.735 869.129 49 874.134 Q 46.547 899.281 42 921.193 Q 36.333 951 40 966 Q 43.667 981 59 980 L 59 771.986 L 59 659 Q 42.469 664.313 31 698 C 27.875 718.002 28.417 717.327 28 726.683 C 27.583 736.04 27 744.377 28 751 C 28.125 760.127 32.673 772.061 38 778 C 43.327 783.939 44.697 785.356 48 790 Q 51.212 794.276 51.457 801 L 51.513 838.323 L 51.457 851 Z  M 66.544 851 Q 68.265 869.129 69 874.134 Q 71.453 899.281 76 921.193 Q 81.667 951 78 966 Q 74.333 981 59 980 L 59 664.622 L 59 659 Q 75.531 664.312 87 698 C 90.125 718.002 89.583 717.327 90 726.683 C 90.417 736.04 91 744.377 90 751 C 89.875 760.127 85.327 772.061 80 778 C 74.673 783.939 73.303 785.356 70 790 Q 66.788 794.276 66.543 801 L 66.487 838.323 L 66.544 851 Z " fill-rule="evenodd" fill="rgb(0,0,0)" vector-effect="non-scaling-stroke" stroke-width="1" stroke="rgb(0,0,0)" stroke-linejoin="miter" stroke-linecap="square" stroke-miterlimit="3"/></svg>